PathFileType	4	(X/Y/Z)	Patient4_TMGait_0pt7_02_left_12.trc.trc
DataRate	CameraRate	NumFrames	NumMarkers	Units	OrigDataRate	OrigDataStartFrame	OrigNumFrames
86.419753086420	86.419753086420	6	33	mm	86.419753086420	89	       141
Frame#	Time	Sacral			L.Shoulder			Chest			R.Shoulder			Neck			R.ASIS			L.ASIS			R.Thigh.Superior			R.Thigh.Lateral			R.Thigh.Inferior			R.Patella			L.Thigh.Superior			L.Thigh.Lateral			L.Thigh.Inferior			L.Patella			L.Shank.Superior			L.Shank.Lateral			L.Shank.Inferior			R.Shank.Superior			R.Shank.Lateral			R.Shank.Inferior			R.Heel			R.Midfoot.Superior			R.Midfoot.Lateral			R.Toe			L.Heel			L.Midfoot.Lateral			L.Midfoot.Superior			L.Toe			L.Elbow			L.Wrist			R.Elbow			R.Wrist			
		X1	Y1	Z1	X2	Y2	Z2	X3	Y3	Z3	X4	Y4	Z4	X5	Y5	Z5	X6	Y6	Z6	X7	Y7	Z7	X8	Y8	Z8	X9	Y9	Z9	X10	Y10	Z10	X11	Y11	Z11	X12	Y12	Z12	X13	Y13	Z13	X14	Y14	Z14	X15	Y15	Z15	X16	Y16	Z16	X17	Y17	Z17	X18	Y18	Z18	X19	Y19	Z19	X20	Y20	Z20	X21	Y21	Z21	X22	Y22	Z22	X23	Y23	Z23	X24	Y24	Z24	X25	Y25	Z25	X26	Y26	Z26	X27	Y27	Z27	X28	Y28	Z28	X29	Y29	Z29	X30	Y30	Z30	X31	Y31	Z31	X32	Y32	Z32	X33	Y33	Z33	

89	14.408285714286	767.492843425009	1006.364768181014	496.994263085254	951.593005690348	1420.171302431285	290.327080589075	1058.460254586813	1353.574696129908	451.619956673421	983.856110078663	1443.488882779769	621.838928809241	963.702597397298	1488.209740727012	439.404846186600	997.315201705052	939.983896155813	611.106435347262	975.606287721404	956.421478205746	337.122620589145	1052.412194276918	747.858215674310	583.084017093522	978.754803798910	634.128702980527	642.654274454399	1060.097860497032	588.055929440723	561.998180344628	1068.372356372601	500.682189707600	567.793407064353	1017.578691335972	741.144481002919	357.054218277709	929.697745030400	628.779275016885	289.331268724846	1016.627179104936	541.529814244000	344.321626908314	1006.978683179049	455.305644249736	338.735686287543	934.897679741673	400.749345148772	332.271158961271	791.451529211774	366.076309110418	284.231850526570	771.922582583737	237.097518043239	337.937132929569	1047.682318105983	410.976390500153	576.074371706103	984.900576597394	301.917672843679	637.499155224565	1035.310780159898	210.707677519147	574.742802755286	914.051574437812	42.064726631464	545.068910657920	1085.619328738632	99.384538405999	578.869446741818	998.435387617194	36.751239298802	617.936383974064	1205.981625236619	47.452676461589	603.518046029953	579.788855271229	184.762447749929	376.832475611002	631.952765796275	127.683154429221	301.263880455943	736.654776956534	129.970086392862	320.964543303977	806.307835505331	28.944527258572	304.673617678039	908.981910805371	1069.090909852391	187.299659627438	1125.205410180231	923.586579463750	192.370893337216	875.244811883072	1125.602028296076	765.057585090649	903.044416967850	864.144841417601	763.067304834719	
90	14.419857142857	767.379967312847	1007.424317586151	500.172153356644	951.325179770339	1420.589828319426	292.457107853084	1059.230742513043	1353.611146513054	452.974889389653	986.171331132387	1443.779757092525	623.765297374570	964.585672191131	1488.628786232579	441.594262546119	997.380010919573	940.522751938994	613.272209763315	974.397281975003	956.361112973034	339.539333765050	1050.069795113114	746.825589181154	586.137638496206	974.490641629850	634.151958817580	644.862623586314	1055.222533594899	587.283154109925	564.104006129993	1062.270433313204	500.080767246051	569.453396791279	1022.389647184587	744.511632962261	359.834145198149	939.732758993343	629.838197288046	290.731592922438	1028.978499161795	544.788180289283	346.474778571870	1020.912984153654	457.481181611127	340.517952156126	947.487651250028	402.776143211330	333.677777221677	803.231069240970	372.469462061079	284.864019418755	779.617741771274	244.096678256112	338.230761062330	1041.294902874610	410.587813853457	577.482687258613	978.082209936270	301.662119019551	638.594047915167	1027.944752614708	210.409533618888	575.376786014857	905.974104902879	42.095824496893	545.170063615128	1077.594986922221	99.175958593972	579.034137546007	990.336122066977	36.708991218492	618.037428429334	1197.995925036586	46.859668444123	603.662062809303	586.210456500975	201.465438383759	376.234459549863	635.192675000479	140.960280943029	300.893372519488	740.090614823011	136.682046646503	320.977076165908	802.598762632933	28.302670318827	304.878242279068	903.814552541710	1069.010718070726	192.475423323996	1110.668005415152	909.398212194811	196.037239933442	881.420389092595	1124.354402668572	767.698941688229	918.715351496999	864.163206641376	761.997279908666	
91	14.431428571429	767.175806219810	1008.280336605843	503.188918343851	950.844934923350	1420.834093853123	294.435422887745	1059.826859996013	1353.437999622759	454.133214974056	988.425384554093	1443.856519935314	625.547390011799	965.390359056646	1488.900511939963	443.631371259784	997.270286391467	940.957061731166	615.326429798135	973.184236776649	956.192528083058	341.716481964481	1047.691633265567	745.901894771085	588.876424470515	970.428005070887	634.219106572427	646.983628446436	1050.461436896859	586.571345941137	566.091228523731	1056.321548927411	499.513688750770	571.110523211284	1026.915480148679	748.163437826829	362.588873947108	949.508047923901	631.383875826316	292.053565121931	1040.939222559180	548.649107167163	348.607481648736	1034.658708655364	460.332452217536	342.332457451828	960.143080085096	405.312972690224	335.130385674695	815.307833656806	378.799429674146	285.551608355233	788.125856581697	251.067305025260	338.724992425577	1035.052057225512	410.203444688084	578.840189618822	971.405182852719	301.438483297551	639.698725400726	1020.654952475312	210.117995981432	576.001376007762	897.882920009398	42.155778136196	545.289713305983	1069.597726979091	98.927803605604	579.205382115864	982.231884598586	36.682147029005	618.150576319224	1190.009916799526	46.212814287883	603.815620445508	593.931274623403	216.973277581115	375.790232199636	640.091725148196	153.615370395787	300.689590425512	744.912389493235	143.629737914429	321.263339400345	800.924110232300	28.347688448000	305.318870790173	898.966881026210	1068.769300221608	197.520560342953	1094.943823919977	895.193969249208	199.687696433946	887.852472681764	1122.886274465189	770.302226484151	935.116801342933	864.477691487113	760.897719435015	
92	14.443000000000	766.875239338813	1008.975822788192	506.027094398314	950.193279050829	1420.948156706162	296.253679166303	1060.248967895903	1353.119031157429	455.113669594621	990.571108479068	1443.777218853472	627.173973063847	966.124150831785	1489.065367578236	445.494823327467	996.992343783134	941.325301381204	617.275372051299	971.974388522431	955.974606057799	343.676941175153	1045.304827842825	745.110635132168	591.299527135439	966.554706311442	634.330587695825	648.990636291464	1045.839198386788	585.919919254131	567.957112418657	1050.555263232096	498.981144077086	572.731970880946	1031.082112856501	752.089787552900	365.315782389377	958.865039867732	633.442919311184	293.296391985484	1052.386910511143	553.109556233900	350.637012561986	1048.081119230310	463.869829560518	344.046020793110	972.736697628881	408.366033173937	336.536548515255	827.507592103740	384.953946767310	286.283957737483	797.409434668500	257.823749820940	339.382768613467	1028.969578324247	409.830966765073	580.132838419384	964.855711113131	301.260720603632	640.785624436145	1013.441859011871	209.843152487177	576.611609940303	889.782809148474	42.242519842083	545.430294323662	1061.621441596997	98.674161341256	579.391158548532	974.126638749932	36.673494239234	618.278149002579	1182.019638779077	45.551709516449	603.987913040018	602.797524763666	230.723534923152	375.532427558529	646.661161662400	165.124470952043	300.692658627622	751.231306867729	150.549615032986	321.802539653238	801.749515164908	29.216491977217	306.039484471856	894.426902064677	1068.405961993846	202.431097833783	1077.985033346897	881.240096143750	203.313391672402	894.574818492064	1121.236219509413	772.804815047160	952.202896721985	865.184495820632	759.700372067428	
93	14.454571428571	766.468488904359	1009.564829164117	508.677435125102	949.415247899434	1420.978425950298	297.911581952220	1060.506157662094	1352.722509855921	455.942411464602	992.567345497965	1443.605400552804	628.639895221360	966.789971257664	1489.164787750592	447.173847362482	996.556399962653	941.656322174158	619.117815668135	970.763045212875	955.771645121263	345.452548938448	1042.915462233281	744.450799692487	593.439461470553	962.820457563606	634.478319405924	650.859908530433	1041.352067160650	585.320164932048	569.707721382736	1044.967500873594	498.480344534569	574.287018523025	1034.839699757428	756.270044379308	368.000255479442	967.680219382077	636.013297969003	294.452703047598	1063.235839870124	558.142912888615	352.482984403724	1061.075706238834	468.083383041681	345.543304337294	985.175206261367	411.917156319204	337.814431897295	839.694948229870	390.808755709618	287.045305828371	807.446987518997	264.175812237166	340.166369861712	1023.035364179251	409.476991352655	581.344639940586	958.403129542438	301.137508595180	641.825473906601	1006.294706226831	209.593937096712	577.198733328854	881.676842318673	42.352842372400	545.589483584717	1053.657736219830	98.440187106070	579.593594803098	966.022416439531	36.683237248589	618.417245007360	1174.021337074890	44.908266350269	604.181509993281	612.669736371717	242.246845428073	375.497540392512	654.881958844752	175.034039513825	300.933605058800	759.133833651127	157.162670673808	322.563127600538	805.459979477356	30.939425454015	307.043078490742	890.159519680744	1067.976391879971	207.199091421650	1059.784130507339	867.833880549673	206.908118069240	901.616529330623	1119.459699394304	775.150721667449	969.930304642508	866.391178281894	758.324914684578	
94	14.466142857143	765.943419153827	1010.105310769398	511.136113990455	948.558082539033	1420.968076708826	299.415532488549	1060.615840522350	1352.311300060939	456.649956722281	994.383252697242	1443.401959728675	629.946462442201	967.387227665444	1489.236653094856	448.669192181048	995.975718797187	941.968366373716	620.846713355284	969.536698955481	955.644667234737	347.076238168041	1040.511536376483	743.904267151484	595.342684399800	959.159798820207	634.651230367875	652.573050793375	1036.976473018481	584.759891655450	571.350713517275	1039.530521129074	498.007320102681	575.749574695186	1038.159801723811	760.673284551845	370.613999876300	975.866342001469	639.064416871426	295.508437757115	1073.430695989705	563.700654140617	354.075810912051	1073.564834882954	472.942525705673	346.737577532721	997.395115001913	415.925046110699	338.901531254372	851.773923710282	396.234153439937	287.819165039534	818.228424693175	269.942104732181	341.042359256097	1017.218105144226	409.147110907897	582.460457721837	952.008942650869	301.073535056766	642.792469451392	999.196196661905	209.377533495843	577.752786648863	873.566535750771	42.483333317358	545.761729589588	1045.697799822253	98.241135670111	579.810227148885	957.919588367796	36.709721969308	618.561563079747	1166.011943679363	44.305308920403	604.393782735520	623.444208865501	251.203618540542	375.727485099858	664.709313455474	183.000768486120	301.431677848208	768.670601330886	163.198295320470	323.502380813501	812.303160886760	33.422361175371	308.278267738273	886.106910062307	1067.545952511980	211.808919954838	1040.389457221756	855.288006818438	210.466035866039	908.996288064961	1117.622542277130	777.294547763012	988.249960185628	868.211274138377	756.690106314987	
